<svg width="800px" height="800px" viewBox="0 0 32 32" enable-background="new 0 0 32 32" id="_x3C_Layer_x3E_" version="1.1" xml:space="preserve" xmlns="http://www.w3.org/2000/svg" xmlns:xlink="http://www.w3.org/1999/xlink">

<path d="M21.4,21.52v1c0,1.66-1.34,3-3,3h-10l-3,4v-4h-1c-1.66,0-3-1.34-3-3v-10c0-1.659,1.34-3,3-3h5" fill="#f4f0f4"></path>

<path d="M23.5,19.52l3,4v-4h1c1.66,0,3-1.34,3-3v-11c0-1.659-1.34-3-3-3h-15c-1.66,0-3,1.341-3,3v11c0,1.66,1.34,3,3,3H23.5" fill="#f4f0f4" id="XMLID_4022_" stroke="#fffff" stroke-linecap="round" stroke-linejoin="round" stroke-miterlimit="10"></path>

<path d="M21.5,21.52v1c0,1.66-1.34,3-3,3h-10l-3,4v-4h-1c-1.66,0-3-1.34-3-3v-10c0-1.659,1.34-3,3-3h3" fill="none" id="XMLID_4017_" stroke="#f46500" stroke-linecap="round" stroke-linejoin="round" stroke-miterlimit="10"></path>

<path d="M23.5,19.52l3,4v-4h1c1.66,0,3-1.34,3-3v-11c0-1.659-1.34-3-3-3h-15c-1.66,0-3,1.341-3,3v11c0,1.66,1.34,3,3,3H23.5z" fill="none" id="XMLID_4016_" stroke="#f46500" stroke-linecap="round" stroke-linejoin="round" stroke-miterlimit="10"></path>

<path d=" M19,11.521h2c0,0.55-0.45,1-1,1S19,12.07,19,11.521z" fill="none" id="XMLID_4015_" stroke="#f46500" stroke-linecap="round" stroke-linejoin="round" stroke-miterlimit="10"></path>

<path d="M24.5,10c0.27,0,0.5,0.23,0.5,0.5S24.77,11,24.5,11S24,10.77,24,10.5S24.23,10,24.5,10" fill="none" id="XMLID_4014_" stroke="#f46500" stroke-linecap="round" stroke-linejoin="round" stroke-miterlimit="10"></path>

<path d="M15.5,10c0.27,0,0.5,0.23,0.5,0.5S15.77,11,15.5,11S15,10.77,15,10.5S15.23,10,15.5,10" fill="none" id="XMLID_4013_" stroke="#f46500" stroke-linecap="round" stroke-linejoin="round" stroke-miterlimit="10"></path>


</svg>